<mxfile host="Electron" agent="Mozilla/5.0 (Windows NT 10.0; Win64; x64) AppleWebKit/537.36 (KHTML, like Gecko) draw.io/24.7.17 Chrome/128.0.6613.36 Electron/32.0.1 Safari/537.36" version="24.7.17">
  <diagram id="C5RBs43oDa-KdzZeNtuy" name="Page-1">
    <mxGraphModel dx="1036" dy="702" grid="1" gridSize="10" guides="1" tooltips="1" connect="1" arrows="1" fold="1" page="1" pageScale="1" pageWidth="827" pageHeight="1169" math="0" shadow="0">
      <root>
        <mxCell id="WIyWlLk6GJQsqaUBKTNV-0" />
        <mxCell id="WIyWlLk6GJQsqaUBKTNV-1" parent="WIyWlLk6GJQsqaUBKTNV-0" />
        <mxCell id="Xnw70sP50jpmAIzYZmzP-2" value="" style="edgeStyle=orthogonalEdgeStyle;rounded=0;orthogonalLoop=1;jettySize=auto;html=1;" parent="WIyWlLk6GJQsqaUBKTNV-1" source="Xnw70sP50jpmAIzYZmzP-0" target="Xnw70sP50jpmAIzYZmzP-1" edge="1">
          <mxGeometry relative="1" as="geometry" />
        </mxCell>
        <mxCell id="Xnw70sP50jpmAIzYZmzP-0" value="Begin" style="ellipse;whiteSpace=wrap;html=1;" parent="WIyWlLk6GJQsqaUBKTNV-1" vertex="1">
          <mxGeometry x="340" y="40" width="120" height="80" as="geometry" />
        </mxCell>
        <mxCell id="Xnw70sP50jpmAIzYZmzP-6" value="" style="edgeStyle=orthogonalEdgeStyle;rounded=0;orthogonalLoop=1;jettySize=auto;html=1;" parent="WIyWlLk6GJQsqaUBKTNV-1" source="Xnw70sP50jpmAIzYZmzP-1" target="Xnw70sP50jpmAIzYZmzP-5" edge="1">
          <mxGeometry relative="1" as="geometry" />
        </mxCell>
        <mxCell id="Xnw70sP50jpmAIzYZmzP-1" value="Input a, b, c" style="shape=parallelogram;perimeter=parallelogramPerimeter;whiteSpace=wrap;html=1;fixedSize=1;" parent="WIyWlLk6GJQsqaUBKTNV-1" vertex="1">
          <mxGeometry x="340" y="170" width="120" height="60" as="geometry" />
        </mxCell>
        <mxCell id="Xnw70sP50jpmAIzYZmzP-8" value="" style="edgeStyle=orthogonalEdgeStyle;rounded=0;orthogonalLoop=1;jettySize=auto;html=1;" parent="WIyWlLk6GJQsqaUBKTNV-1" source="Xnw70sP50jpmAIzYZmzP-5" target="Xnw70sP50jpmAIzYZmzP-7" edge="1">
          <mxGeometry relative="1" as="geometry" />
        </mxCell>
        <mxCell id="Xnw70sP50jpmAIzYZmzP-5" value="max = a" style="whiteSpace=wrap;html=1;" parent="WIyWlLk6GJQsqaUBKTNV-1" vertex="1">
          <mxGeometry x="340" y="280" width="120" height="60" as="geometry" />
        </mxCell>
        <mxCell id="Xnw70sP50jpmAIzYZmzP-10" value="" style="edgeStyle=orthogonalEdgeStyle;rounded=0;orthogonalLoop=1;jettySize=auto;html=1;" parent="WIyWlLk6GJQsqaUBKTNV-1" source="Xnw70sP50jpmAIzYZmzP-7" target="Xnw70sP50jpmAIzYZmzP-9" edge="1">
          <mxGeometry relative="1" as="geometry" />
        </mxCell>
        <mxCell id="Xnw70sP50jpmAIzYZmzP-12" value="" style="edgeStyle=orthogonalEdgeStyle;rounded=0;orthogonalLoop=1;jettySize=auto;html=1;" parent="WIyWlLk6GJQsqaUBKTNV-1" source="Xnw70sP50jpmAIzYZmzP-7" target="Xnw70sP50jpmAIzYZmzP-11" edge="1">
          <mxGeometry relative="1" as="geometry" />
        </mxCell>
        <mxCell id="Xnw70sP50jpmAIzYZmzP-7" value="max &amp;gt;b" style="rhombus;whiteSpace=wrap;html=1;" parent="WIyWlLk6GJQsqaUBKTNV-1" vertex="1">
          <mxGeometry x="330" y="390" width="140" height="80" as="geometry" />
        </mxCell>
        <mxCell id="Xnw70sP50jpmAIzYZmzP-13" style="edgeStyle=orthogonalEdgeStyle;rounded=0;orthogonalLoop=1;jettySize=auto;html=1;entryX=1;entryY=0.5;entryDx=0;entryDy=0;" parent="WIyWlLk6GJQsqaUBKTNV-1" source="Xnw70sP50jpmAIzYZmzP-9" target="Xnw70sP50jpmAIzYZmzP-11" edge="1">
          <mxGeometry relative="1" as="geometry">
            <Array as="points">
              <mxPoint x="600" y="585" />
            </Array>
          </mxGeometry>
        </mxCell>
        <mxCell id="Xnw70sP50jpmAIzYZmzP-9" value="max=b" style="whiteSpace=wrap;html=1;" parent="WIyWlLk6GJQsqaUBKTNV-1" vertex="1">
          <mxGeometry x="540" y="400" width="120" height="60" as="geometry" />
        </mxCell>
        <mxCell id="Xnw70sP50jpmAIzYZmzP-17" value="" style="edgeStyle=orthogonalEdgeStyle;rounded=0;orthogonalLoop=1;jettySize=auto;html=1;" parent="WIyWlLk6GJQsqaUBKTNV-1" source="Xnw70sP50jpmAIzYZmzP-11" target="Xnw70sP50jpmAIzYZmzP-16" edge="1">
          <mxGeometry relative="1" as="geometry" />
        </mxCell>
        <mxCell id="Xnw70sP50jpmAIzYZmzP-22" value="" style="edgeStyle=orthogonalEdgeStyle;rounded=0;orthogonalLoop=1;jettySize=auto;html=1;" parent="WIyWlLk6GJQsqaUBKTNV-1" source="Xnw70sP50jpmAIzYZmzP-11" target="Xnw70sP50jpmAIzYZmzP-21" edge="1">
          <mxGeometry relative="1" as="geometry" />
        </mxCell>
        <mxCell id="Xnw70sP50jpmAIzYZmzP-11" value="max &amp;gt;c" style="rhombus;whiteSpace=wrap;html=1;" parent="WIyWlLk6GJQsqaUBKTNV-1" vertex="1">
          <mxGeometry x="330" y="545" width="140" height="80" as="geometry" />
        </mxCell>
        <mxCell id="Xnw70sP50jpmAIzYZmzP-14" value="false" style="text;html=1;align=center;verticalAlign=middle;resizable=0;points=[];autosize=1;strokeColor=none;fillColor=none;" parent="WIyWlLk6GJQsqaUBKTNV-1" vertex="1">
          <mxGeometry x="480" y="430" width="50" height="30" as="geometry" />
        </mxCell>
        <mxCell id="Xnw70sP50jpmAIzYZmzP-15" value="true" style="text;html=1;align=center;verticalAlign=middle;resizable=0;points=[];autosize=1;strokeColor=none;fillColor=none;" parent="WIyWlLk6GJQsqaUBKTNV-1" vertex="1">
          <mxGeometry x="400" y="490" width="40" height="30" as="geometry" />
        </mxCell>
        <mxCell id="Xnw70sP50jpmAIzYZmzP-19" value="" style="edgeStyle=orthogonalEdgeStyle;rounded=0;orthogonalLoop=1;jettySize=auto;html=1;" parent="WIyWlLk6GJQsqaUBKTNV-1" source="Xnw70sP50jpmAIzYZmzP-16" target="Xnw70sP50jpmAIzYZmzP-18" edge="1">
          <mxGeometry relative="1" as="geometry" />
        </mxCell>
        <mxCell id="Xnw70sP50jpmAIzYZmzP-16" value="Display max" style="shape=parallelogram;perimeter=parallelogramPerimeter;whiteSpace=wrap;html=1;fixedSize=1;" parent="WIyWlLk6GJQsqaUBKTNV-1" vertex="1">
          <mxGeometry x="340" y="690" width="120" height="60" as="geometry" />
        </mxCell>
        <mxCell id="Xnw70sP50jpmAIzYZmzP-18" value="End" style="ellipse;whiteSpace=wrap;html=1;" parent="WIyWlLk6GJQsqaUBKTNV-1" vertex="1">
          <mxGeometry x="360" y="810" width="80" height="80" as="geometry" />
        </mxCell>
        <mxCell id="Xnw70sP50jpmAIzYZmzP-24" style="edgeStyle=orthogonalEdgeStyle;rounded=0;orthogonalLoop=1;jettySize=auto;html=1;exitX=0.5;exitY=1;exitDx=0;exitDy=0;" parent="WIyWlLk6GJQsqaUBKTNV-1" source="Xnw70sP50jpmAIzYZmzP-21" target="Xnw70sP50jpmAIzYZmzP-16" edge="1">
          <mxGeometry relative="1" as="geometry">
            <Array as="points">
              <mxPoint x="180" y="720" />
            </Array>
          </mxGeometry>
        </mxCell>
        <mxCell id="Xnw70sP50jpmAIzYZmzP-21" value="max=c" style="whiteSpace=wrap;html=1;" parent="WIyWlLk6GJQsqaUBKTNV-1" vertex="1">
          <mxGeometry x="120" y="555" width="120" height="60" as="geometry" />
        </mxCell>
        <mxCell id="Xnw70sP50jpmAIzYZmzP-25" value="false" style="text;html=1;align=center;verticalAlign=middle;resizable=0;points=[];autosize=1;strokeColor=none;fillColor=none;" parent="WIyWlLk6GJQsqaUBKTNV-1" vertex="1">
          <mxGeometry x="270" y="585" width="50" height="30" as="geometry" />
        </mxCell>
        <mxCell id="Xnw70sP50jpmAIzYZmzP-26" value="true" style="text;html=1;align=center;verticalAlign=middle;resizable=0;points=[];autosize=1;strokeColor=none;fillColor=none;" parent="WIyWlLk6GJQsqaUBKTNV-1" vertex="1">
          <mxGeometry x="400" y="640" width="40" height="30" as="geometry" />
        </mxCell>
        <mxCell id="Xnw70sP50jpmAIzYZmzP-27" value="&lt;div style=&quot;text-align: justify;&quot;&gt;&lt;span style=&quot;background-color: initial;&quot;&gt;Begin&lt;/span&gt;&lt;/div&gt;&lt;div style=&quot;text-align: justify;&quot;&gt;Input a, b, c&lt;/div&gt;&lt;div style=&quot;text-align: justify;&quot;&gt;set max=a&lt;/div&gt;&lt;div style=&quot;text-align: justify;&quot;&gt;if max &amp;lt;b&amp;nbsp; max=b&lt;/div&gt;&lt;div style=&quot;text-align: justify;&quot;&gt;max&amp;gt;c&lt;/div&gt;&lt;div style=&quot;text-align: justify;&quot;&gt;If max&amp;lt;c&amp;nbsp;&lt;span style=&quot;background-color: initial;&quot;&gt;max=c&lt;/span&gt;&lt;/div&gt;&lt;div style=&quot;text-align: justify;&quot;&gt;display max&lt;/div&gt;&lt;div style=&quot;text-align: justify;&quot;&gt;end&lt;/div&gt;" style="text;html=1;align=center;verticalAlign=middle;resizable=0;points=[];autosize=1;strokeColor=none;fillColor=none;" parent="WIyWlLk6GJQsqaUBKTNV-1" vertex="1">
          <mxGeometry x="5" y="955" width="120" height="130" as="geometry" />
        </mxCell>
      </root>
    </mxGraphModel>
  </diagram>
</mxfile>
